<svg width="72" height="72" viewBox="0 0 72 72" fill="none" xmlns="http://www.w3.org/2000/svg">
<g clip-path="url(#clip0_2679_29553)">
<mask id="mask0_2679_29553" style="mask-type:luminance" maskUnits="userSpaceOnUse" x="0" y="0" width="72" height="72">
<path d="M72 0H0V72H72V0Z" fill="white"/>
</mask>
<g mask="url(#mask0_2679_29553)">
<mask id="mask1_2679_29553" style="mask-type:luminance" maskUnits="userSpaceOnUse" x="-1" y="-1" width="74" height="74">
<path d="M-0.25 -0.25H72.25V72.25H-0.25V-0.25Z" fill="white"/>
</mask>
<g mask="url(#mask1_2679_29553)">
<path d="M16.7341 40.5167C11.041 40.958 6.55908 45.7174 6.55908 51.5235C6.55908 57.6209 11.502 62.5638 17.5994 62.5638H34.7734H36H51.9472C59.3996 62.5638 65.4409 56.5226 65.4409 49.0701C65.4409 41.6177 59.3996 35.5764 51.9472 35.5764C51.6512 35.5764 51.3575 35.5858 51.0664 35.6047C47.9862 29.7528 41.8458 25.7627 34.7734 25.7627C25.8595 25.7627 18.426 32.1011 16.7341 40.5167Z" fill="url(#paint0_linear_2679_29553)"/>
<path d="M17.5994 40.4832C11.502 40.4832 6.55908 45.426 6.55908 51.5235C6.55908 57.6209 11.502 62.5638 17.5994 62.5638H36V55.2036C36 47.0738 29.4095 40.4832 21.2795 40.4832H17.5994Z" fill="url(#paint1_radial_2679_29553)"/>
<path d="M16.3728 44.1633C16.3728 54.3257 24.611 62.5638 34.7734 62.5638C44.9355 62.5638 53.1738 54.3257 53.1738 44.1633C53.1738 34.001 44.9355 25.7627 34.7734 25.7627C24.611 25.7627 16.3728 34.001 16.3728 44.1633Z" fill="url(#paint2_radial_2679_29553)"/>
<path d="M38.4535 49.0701C38.4535 56.5226 44.4948 62.5638 51.9472 62.5638C59.3996 62.5638 65.4409 56.5226 65.4409 49.0701C65.4409 41.6178 59.3996 35.5764 51.9472 35.5764C44.4948 35.5764 38.4535 41.6178 38.4535 49.0701Z" fill="url(#paint3_radial_2679_29553)"/>
</g>
</g>
</g>
<defs>
<linearGradient id="paint0_linear_2679_29553" x1="36" y1="25.7967" x2="36.1435" y2="61.6263" gradientUnits="userSpaceOnUse">
<stop stop-color="#AFCEFA"/>
<stop offset="0.39" stop-color="#B1D0F9"/>
<stop offset="0.78" stop-color="#B4D2F9"/>
<stop offset="0.89" stop-color="#90B4EE"/>
<stop offset="1" stop-color="#6C95E3"/>
</linearGradient>
<radialGradient id="paint1_radial_2679_29553" cx="0" cy="0" r="1" gradientUnits="userSpaceOnUse" gradientTransform="translate(25.6496 63.6164) scale(25.8651 25.8651)">
<stop offset="0.69" stop-color="#8FABDD" stop-opacity="0"/>
<stop offset="0.84" stop-color="#7296D8" stop-opacity="0.5"/>
<stop offset="1" stop-color="#5582D3"/>
</radialGradient>
<radialGradient id="paint2_radial_2679_29553" cx="0" cy="0" r="1" gradientUnits="userSpaceOnUse" gradientTransform="translate(35.3771 59.8682) scale(34.2015)">
<stop offset="0.6" stop-color="#C7DFFF" stop-opacity="0"/>
<stop offset="0.8" stop-color="#8FB0EC" stop-opacity="0.5"/>
<stop offset="1" stop-color="#5782DA"/>
</radialGradient>
<radialGradient id="paint3_radial_2679_29553" cx="0" cy="0" r="1" gradientUnits="userSpaceOnUse" gradientTransform="translate(44.1922 60.0687) scale(26.9772)">
<stop offset="0.48" stop-color="#8FABDD" stop-opacity="0"/>
<stop offset="0.74" stop-color="#7396DC" stop-opacity="0.5"/>
<stop offset="1" stop-color="#5782DA"/>
</radialGradient>
<clipPath id="clip0_2679_29553">
<rect width="72" height="72" fill="white"/>
</clipPath>
</defs>
</svg>
